<?xml version="1.0" encoding="UTF-8"?><svg id="icons" xmlns="http://www.w3.org/2000/svg" viewBox="0 0 24 24"><path d="M2.37,11.14c5.37-2.34,8.95-3.88,10.74-4.63,5.12-2.13,6.18-2.5,6.87-2.51,.15,0,.49,.04,.71,.21,.18,.15,.24,.36,.26,.5,.02,.14,.05,.47,.03,.72-.28,2.91-1.48,9.98-2.09,13.24-.26,1.38-.77,1.84-1.26,1.89-1.07,.1-1.88-.71-2.92-1.39-1.62-1.06-2.54-1.72-4.11-2.76-1.82-1.2-.64-1.86,.4-2.93,.27-.28,4.98-4.57,5.07-4.96,.01-.05,.02-.23-.09-.33-.11-.1-.26-.06-.38-.04-.16,.04-2.75,1.75-7.77,5.13-.73,.5-1.4,.75-2,.74-.66-.01-1.92-.37-2.86-.68-1.15-.37-2.07-.57-1.99-1.21,.04-.33,.5-.67,1.37-1.02h0Z"/></svg>